<svg width="60" height="48" viewBox="0 0 60 48" fill="none" xmlns="http://www.w3.org/2000/svg">
<path d="M43.105 10.4767C42.795 10.4767 42.5 10.2279 42.5 9.8645V0.659818C42.5 0.296397 42.3325 0 42.0213 0H17.9775C17.6663 0 17.5 0.296397 17.5 0.659818V9.8645C17.5 10.2279 17.1637 10.426 16.8512 10.426H0.56125C0.25375 10.426 0 10.8237 0 11.1827V21.415C0 21.7755 0.25375 22.3415 0.56125 22.3415H26.7937C27.105 22.3415 27.5 21.7755 27.5 21.415V19.233C27.5 18.8696 27.615 17.8732 27.925 17.8732H32.0762C32.3862 17.8732 32.5 18.8696 32.5 19.233V21.415C32.5 21.7755 32.895 22.3415 33.2038 22.3415H59.435C59.7475 22.3415 60 21.7755 60 21.415V11.1827C60 10.8222 59.7475 10.426 59.4362 10.426H43.1475L43.105 10.4767ZM21.3663 10.426C21.0563 10.426 21.25 10.2279 21.25 9.86599V4.63362C21.25 4.26871 21.0563 4.46829 21.3663 4.46829H38.6338C38.9438 4.46829 38.75 4.26871 38.75 4.63362V9.86599C38.75 10.2279 38.9438 10.426 38.6338 10.426H21.3663ZM32.5687 32.3385C32.5687 32.699 32.3862 32.7675 32.0762 32.7675H27.925C27.615 32.7675 27.5 32.9269 27.5 32.5664V25.2116C27.5 24.8512 27.105 23.8309 26.795 23.8309H0.56125C0.25375 23.8309 0 24.8512 0 25.2116V47.0005C0.0019687 47.1764 0.0619287 47.3444 0.166936 47.4681C0.271943 47.5919 0.413573 47.6614 0.56125 47.6618H59.4362C59.5842 47.6626 59.7265 47.5937 59.8321 47.4701C59.9377 47.3466 59.998 47.1783 60 47.002V25.2116C60 24.8512 59.7475 23.8309 59.4362 23.8309H33.2038C32.895 23.8309 32.5 24.8512 32.5 25.2116V32.5664L32.5687 32.3385Z" fill="#52006A" fill-opacity="0.5"/>
</svg>
