<svg width="60" height="60" viewBox="0 0 60 60" fill="none" xmlns="http://www.w3.org/2000/svg">
<path d="M41.415 54.9975H41.485C42.805 54.9975 44.0525 54.4775 44.9975 53.5325L51.7775 46.7525C52.0099 46.5205 52.1942 46.245 52.32 45.9417C52.4458 45.6385 52.5105 45.3133 52.5105 44.985C52.5105 44.6567 52.4458 44.3316 52.32 44.0283C52.1942 43.725 52.0099 43.4495 51.7775 43.2175L41.7775 33.2175C41.5455 32.9851 41.27 32.8008 40.9667 32.675C40.6634 32.5492 40.3383 32.4845 40.01 32.4845C39.6817 32.4845 39.3566 32.5492 39.0533 32.675C38.75 32.8008 38.4745 32.9851 38.2425 33.2175L34.2575 37.2025C32.41 36.6525 28.9625 35.4025 26.7775 33.2175C24.5925 31.0325 23.3425 27.585 22.7925 25.7375L26.7775 21.7525C27.0099 21.5205 27.1942 21.245 27.32 20.9417C27.4458 20.6384 27.5105 20.3133 27.5105 19.985C27.5105 19.6567 27.4458 19.3316 27.32 19.0283C27.1942 18.725 27.0099 18.4495 26.7775 18.2175L16.7775 8.2175C16.2996 7.76638 15.6672 7.51508 15.01 7.51508C14.3528 7.51508 13.7204 7.76638 13.2425 8.2175L6.46499 14.9975C5.51499 15.9475 4.97999 17.2525 4.99999 18.585C5.05749 22.145 5.99999 34.51 15.745 44.255C25.49 54 37.855 54.94 41.415 54.9975ZM15.0125 13.52L21.4775 19.985L18.245 23.2175C17.9508 23.5109 17.7347 23.8731 17.6164 24.2714C17.4981 24.6696 17.4813 25.0911 17.5675 25.4975C17.6275 25.785 19.095 32.6025 23.245 36.7525C27.395 40.9025 34.2125 42.37 34.5 42.43C34.9064 42.5167 35.328 42.5001 35.7263 42.3818C36.1246 42.2634 36.4869 42.0471 36.78 41.7525L40.0125 38.52L46.4775 44.985L41.4625 49.9975C38.3425 49.945 27.6675 49.1075 19.28 40.7175C10.865 32.3025 10.05 21.59 9.99999 18.5325L15.0125 13.52ZM49.9975 27.4975H54.9975C54.9975 14.6725 45.315 5 32.4725 5V10C42.6275 10 49.9975 17.3575 49.9975 27.4975Z" fill="#52006A" fill-opacity="0.5"/>
<path d="M32.4975 20C37.755 20 39.9975 22.2425 39.9975 27.5H44.9975C44.9975 19.4375 40.56 15 32.4975 15V20Z" fill="#52006A" fill-opacity="0.5"/>
</svg>
