<svg width="39" height="40" viewBox="0 0 39 40" fill="none" xmlns="http://www.w3.org/2000/svg">
<path d="M9.38478 13.1452C8.929 10.0039 11.0512 7.17516 14.2932 6.14016C14.8686 5.956 15.4897 6.00814 16.0296 6.28594C16.5695 6.56374 16.9878 7.04628 17.1989 7.63516L18.2385 10.5352C18.4059 11.0018 18.436 11.5101 18.325 11.9948C18.2139 12.4794 17.9668 12.9183 17.6153 13.2552L14.5228 16.2177C14.3703 16.3641 14.2567 16.5492 14.193 16.7551C14.1292 16.961 14.1176 17.1807 14.1592 17.3927L14.1867 17.5227L14.2632 17.8489C14.3314 18.1252 14.4343 18.5127 14.5791 18.9739C14.8662 19.8927 15.3244 21.1277 16.0062 22.3614C16.6881 23.5964 17.4825 24.6277 18.0997 25.3477C18.4212 25.7219 18.7573 26.0822 19.107 26.4277L19.2027 26.5189C19.3573 26.6623 19.5448 26.7613 19.7469 26.8065C19.949 26.8516 20.1588 26.8412 20.356 26.7764L24.3587 25.4602C24.8134 25.3106 25.3005 25.3064 25.7574 25.4481C26.2144 25.5897 26.6205 25.8708 26.9236 26.2552L28.8173 28.6589C29.6069 29.6589 29.5135 31.1277 28.6056 32.0114C26.1245 34.4289 22.7126 34.9239 20.3392 32.9302C17.4299 30.4781 14.9773 27.4874 13.104 24.1077C11.2151 20.7306 9.9533 17.0113 9.38478 13.1452ZM16.6654 17.5577L19.2326 15.0977C19.9352 14.424 20.4291 13.5463 20.651 12.5772C20.8729 11.6082 20.8127 10.5919 20.478 9.65891L19.4372 6.75891C19.0126 5.57407 18.1715 4.60303 17.0855 4.04374C15.9994 3.48445 14.75 3.37901 13.5921 3.74891C9.56782 5.03766 6.33544 8.80766 7.01972 13.5202C7.49823 16.8102 8.60241 20.9952 11.0357 25.3652C13.0563 29.0094 15.7015 32.2339 18.8391 34.8777C22.398 37.8664 27.1521 36.8464 30.2373 33.8402C31.1197 32.9805 31.6552 31.8015 31.7346 30.5436C31.8139 29.2857 31.4312 28.0434 30.6644 27.0702L28.7706 24.6664C28.1645 23.8972 27.3522 23.3347 26.438 23.0512C25.5238 22.7676 24.5494 22.776 23.6398 23.0752L20.3177 24.1677C20.1909 24.0302 20.0425 23.8664 19.881 23.6777C19.1982 22.8884 18.5942 22.0286 18.0782 21.1114C17.576 20.1861 17.1651 19.2099 16.852 18.1977C16.7856 17.9857 16.7234 17.7723 16.6654 17.5577Z" fill="#FFF3CD"/>
</svg>
