<svg width="60" height="60" viewBox="0 0 60 60" fill="none" xmlns="http://www.w3.org/2000/svg">
<path d="M39.9108 2.77322C39.988 2.5042 40.015 2.22152 39.9903 1.94132C39.9655 1.66112 39.8895 1.38888 39.7666 1.14016C39.6437 0.891434 39.4762 0.67109 39.2738 0.491706C39.0714 0.312323 38.838 0.177415 38.587 0.094683C38.3359 0.0119513 38.0721 -0.0169829 37.8106 0.00953193C37.5491 0.0360468 37.2951 0.117492 37.063 0.249217C36.8308 0.380941 36.6252 0.560366 36.4578 0.777247C36.2904 0.994128 36.1645 1.24422 36.0873 1.51324L20.0892 57.2268C19.9333 57.7701 19.9851 58.3575 20.2334 58.8598C20.4817 59.3622 20.906 59.7382 21.413 59.9053C21.9201 60.0724 22.4683 60.0168 22.937 59.7508C23.4058 59.4847 23.7568 59.0301 23.9127 58.4868L39.9108 2.77322ZM17.4175 13.4831C17.6037 13.6821 17.7515 13.9186 17.8523 14.1789C17.9531 14.4393 18.005 14.7183 18.005 15.0002C18.005 15.2821 17.9531 15.5611 17.8523 15.8215C17.7515 16.0818 17.6037 16.3183 17.4175 16.5173L4.831 30L17.4175 43.4827C17.793 43.885 18.004 44.4308 18.004 44.9998C18.004 45.5688 17.793 46.1146 17.4175 46.5169C17.042 46.9193 16.5327 47.1453 16.0017 47.1453C15.4706 47.1453 14.9613 46.9193 14.5858 46.5169L0.587505 31.5171C0.401274 31.3181 0.253521 31.0816 0.152707 30.8213C0.051893 30.5609 0 30.2819 0 30C0 29.7181 0.051893 29.4391 0.152707 29.1787C0.253521 28.9184 0.401274 28.6819 0.587505 28.4829L14.5858 13.4831C14.7716 13.2835 14.9923 13.1252 15.2352 13.0172C15.4782 12.9091 15.7386 12.8535 16.0017 12.8535C16.2647 12.8535 16.5252 12.9091 16.7681 13.0172C17.0111 13.1252 17.2317 13.2835 17.4175 13.4831ZM42.5825 13.4831C42.3963 13.6821 42.2485 13.9186 42.1477 14.1789C42.0469 14.4393 41.995 14.7183 41.995 15.0002C41.995 15.2821 42.0469 15.5611 42.1477 15.8215C42.2485 16.0818 42.3963 16.3183 42.5825 16.5173L55.169 30L42.5825 43.4827C42.3966 43.6819 42.2491 43.9184 42.1485 44.1787C42.0478 44.439 41.996 44.718 41.996 44.9998C41.996 45.2816 42.0478 45.5606 42.1485 45.8209C42.2491 46.0812 42.3966 46.3177 42.5825 46.5169C42.7684 46.7162 42.9892 46.8742 43.2321 46.982C43.475 47.0898 43.7354 47.1453 43.9983 47.1453C44.2613 47.1453 44.5216 47.0898 44.7646 46.982C45.0075 46.8742 45.2282 46.7162 45.4142 46.5169L59.4125 31.5171C59.5987 31.3181 59.7465 31.0816 59.8473 30.8213C59.9481 30.5609 60 30.2819 60 30C60 29.7181 59.9481 29.4391 59.8473 29.1787C59.7465 28.9184 59.5987 28.6819 59.4125 28.4829L45.4142 13.4831C45.2284 13.2835 45.0077 13.1252 44.7648 13.0172C44.5218 12.9091 44.2614 12.8535 43.9983 12.8535C43.7353 12.8535 43.4748 12.9091 43.2319 13.0172C42.9889 13.1252 42.7683 13.2835 42.5825 13.4831Z" fill="#52006A" fill-opacity="0.5"/>
</svg>
