<svg width="60" height="60" viewBox="0 0 60 60" fill="none" xmlns="http://www.w3.org/2000/svg">
<path d="M60 54.0009V60H0V54.0009H10V51.0014C8.67513 50.9966 7.40566 50.363 6.46884 49.239C5.53201 48.115 5.00396 46.5919 5 45.0023V15.0068C5.00396 13.4171 5.53201 11.894 6.46884 10.77C7.40566 9.64597 8.67513 9.0124 10 9.00765H14.99V15.0068H10V45.0023H50V15.0068H44.99V9.00765H50C51.3249 9.0124 52.5943 9.64597 53.5312 10.77C54.468 11.894 54.996 13.4171 55 15.0068L54.975 45.0023C54.977 46.5889 54.4543 48.1116 53.5216 49.2363C52.5889 50.361 51.3224 50.9958 50 51.0014V54.0009H60ZM37.5 35.9676L30 26.969L22.5 35.9676H27.5V41.9967H32.5V35.9676H37.5ZM39.9875 11.9982C39.9875 14.3712 39.401 16.6909 38.3022 18.664C37.2034 20.6371 35.6416 22.175 33.8143 23.0831C31.9871 23.9912 29.9764 24.2288 28.0366 23.7659C26.0968 23.3029 24.315 22.1602 22.9164 20.4822C21.5179 18.8042 20.5655 16.6664 20.1796 14.3389C19.7938 12.0115 19.9918 9.59907 20.7487 7.40669C21.5056 5.2143 22.7873 3.34044 24.4318 2.02206C26.0763 0.703682 28.0097 0 29.9875 0C32.6395 0.000795171 35.1826 1.26514 37.0578 3.51507C38.9331 5.765 39.9868 8.81632 39.9875 11.9982ZM28.9875 20.8769V19.1971C28.4575 19.1955 27.9495 18.9422 27.5747 18.4925C27.2 18.0429 26.9888 17.4334 26.9875 16.7975V15.5977L22.625 10.3634C22.4296 11.5598 22.4419 12.7916 22.6609 13.9821C22.8799 15.1725 23.3011 16.296 23.8981 17.2825C24.4951 18.269 25.2551 19.0973 26.1308 19.7157C27.0064 20.3341 27.9789 20.7294 28.9875 20.8769ZM35.6325 17.8563C36.4096 16.7958 36.966 15.5292 37.256 14.1606C37.546 12.792 37.5613 11.3604 37.3008 9.98327C37.0402 8.60617 36.5111 7.32286 35.7569 6.23869C35.0028 5.15452 34.0451 4.30039 32.9625 3.74644C32.9327 4.35212 32.7121 4.92154 32.3453 5.33928C31.9786 5.75702 31.4932 5.99183 30.9875 5.9961H28.9875V8.39574C28.9868 8.71371 28.8813 9.01843 28.6939 9.24327C28.5065 9.46811 28.2525 9.59477 27.9875 9.59556H25.9875V11.9952H31.9875C32.2525 11.996 32.5065 12.1227 32.6939 12.3475C32.8813 12.5723 32.9868 12.8771 32.9875 13.195V16.7945H33.9875C34.3136 16.7941 34.6346 16.8909 34.9217 17.0762C35.2089 17.2616 35.4531 17.5296 35.6325 17.8563Z" fill="#52006A" fill-opacity="0.5"/>
</svg>
