<svg width="60" height="48" viewBox="0 0 60 48" fill="none" xmlns="http://www.w3.org/2000/svg">
<path d="M12.6637 23.7051V37.5535H30.0129L26.3947 34.6654H16.2819V26.5932L12.6637 23.7051Z" fill="#52006A" fill-opacity="0.5"/>
<path d="M59.4648 45.1925L54.2728 40.9903V44.7737H3.61821V38.7809H7.23639V36.4705H3.61821V26.8676H7.23639V24.5571H3.61821V15.3152H7.23639V13.0048H3.61821V4.93258L32.4551 27.8206V23.7484L3.09358 0.42717C2.84054 0.223518 2.51725 0.0846295 2.16493 0.0282113C1.81262 -0.028207 1.44724 0.000401481 1.11537 0.110389C0.783502 0.220377 0.500188 0.406762 0.301548 0.645779C0.102907 0.884797 -0.00205907 1.16562 3.06043e-05 1.45244V46.2177C3.06043e-05 46.6007 0.190631 46.968 0.529901 47.2388C0.869171 47.5096 1.32932 47.6618 1.80912 47.6618H58.1804C58.5397 47.6634 58.8915 47.5797 59.191 47.4211C59.4904 47.2626 59.7239 47.0364 59.8617 46.7715C59.9995 46.5066 60.0353 46.2149 59.9647 45.9337C59.894 45.6525 59.72 45.3944 59.4648 45.1925Z" fill="#52006A" fill-opacity="0.5"/>
<path d="M39.8001 41.8853H47.0364C47.996 41.8853 48.9163 41.581 49.5949 41.0394C50.2734 40.4978 50.6546 39.7632 50.6546 38.9972V11.1273L46.4937 5.01902C46.1719 4.574 45.7072 4.20557 45.1475 3.95173C44.5878 3.69789 43.9534 3.56783 43.3097 3.57499C42.6515 3.57916 42.0071 3.72659 41.446 4.0014C40.885 4.27621 40.4285 4.66799 40.1257 5.13455L36.1819 11.1562V38.9972C36.1819 39.7632 36.5631 40.4978 37.2416 41.0394C37.9202 41.581 38.8405 41.8853 39.8001 41.8853ZM39.8001 11.8493L43.3097 6.4053L47.0364 11.8638V33.2211H39.8001V11.8493ZM39.8001 35.5749H47.0364V39.0983H39.8001V35.5749Z" fill="#52006A" fill-opacity="0.5"/>
</svg>
