<svg width="35" height="26" viewBox="0 0 35 26" fill="none" xmlns="http://www.w3.org/2000/svg">
<path d="M31.9961 0.5H3.28516C2.65061 0.5 2.04204 0.763392 1.59335 1.23223C1.14465 1.70107 0.892578 2.33696 0.892578 3V23C0.892578 23.663 1.14465 24.2989 1.59335 24.7678C2.04204 25.2366 2.65061 25.5 3.28516 25.5H31.9961C32.6306 25.5 33.2392 25.2366 33.6879 24.7678C34.1366 24.2989 34.3887 23.663 34.3887 23V3C34.3887 2.33696 34.1366 1.70107 33.6879 1.23223C33.2392 0.763392 32.6306 0.5 31.9961 0.5V0.5ZM29.3643 3L17.6406 11.475L5.91699 3H29.3643ZM3.28516 23V4.1375L16.9587 14.025C17.159 14.1702 17.3969 14.2479 17.6406 14.2479C17.8843 14.2479 18.1223 14.1702 18.3225 14.025L31.9961 4.1375V23H3.28516Z" fill="#FFF3CD"/>
</svg>
