<svg width="60" height="48" viewBox="0 0 60 48" fill="none" xmlns="http://www.w3.org/2000/svg">
<path d="M51.4286 38.996H8.57142C7.43513 38.9949 6.3457 38.538 5.54222 37.7257C4.73873 36.9134 4.28684 35.8119 4.28571 34.6631V4.33289C4.28684 3.18409 4.73873 2.08267 5.54222 1.27034C6.3457 0.458015 7.43513 0.00114708 8.57142 0H51.4286C52.5649 0.00114708 53.6543 0.458015 54.4578 1.27034C55.2613 2.08267 55.7132 3.18409 55.7143 4.33289V34.6631C55.7126 35.8118 55.2605 36.9129 54.4572 37.7251C53.6538 38.5373 52.5647 38.9943 51.4286 38.996ZM8.57142 4.33289V34.6631H51.4286V4.33289H8.57142Z" fill="#52006A" fill-opacity="0.5"/>
<path d="M0 43.3289H60V47.6618H0V43.3289Z" fill="#52006A" fill-opacity="0.5"/>
</svg>
