<svg width="27" height="37" viewBox="0 0 27 37" fill="none" xmlns="http://www.w3.org/2000/svg">
<path d="M22.6806 4.35255C20.4071 1.97758 17.3722 0.566756 14.1618 0.392361C10.9513 0.217965 7.7928 1.29236 5.29588 3.4082C2.79895 5.52403 1.1406 8.5313 0.640885 11.8496C0.141172 15.1679 0.835522 18.562 2.58992 21.3768L11.6299 35.8779C11.8311 36.2005 12.1061 36.4656 12.4302 36.6492C12.7542 36.8327 13.1169 36.9288 13.4855 36.9288C13.854 36.9288 14.2168 36.8327 14.5408 36.6492C14.8648 36.4656 15.1399 36.2005 15.341 35.8779L24.3813 21.3768C26.0092 18.7657 26.7286 15.6492 26.419 12.5497C26.1093 9.45021 24.7894 6.55613 22.6806 4.35255ZM22.3766 20.0122L13.4855 34.274L4.59431 20.0122C1.87275 15.6467 2.45646 9.8045 5.98223 6.12028C6.96756 5.09068 8.13733 4.27395 9.42475 3.71674C10.7122 3.15952 12.092 2.87272 13.4855 2.87272C14.879 2.87272 16.2588 3.15952 17.5463 3.71674C18.8337 4.27395 20.0034 5.09068 20.9888 6.12028C24.5145 9.8045 25.0982 15.6467 22.3766 20.0122Z" fill="#FFF3CD"/>
</svg>
