<svg width="60" height="60" viewBox="0 0 60 60" fill="none" xmlns="http://www.w3.org/2000/svg">
<path d="M57.6704 2.32887C56.1778 0.837645 54.1542 0 52.0443 0C49.9344 0 47.9108 0.837645 46.4181 2.32887L41.988 6.75788C41.988 6.75788 37.2559 8.49188 28.6297 17.1189C20.0035 25.7449 18.2705 30.4779 18.2705 30.4779L9.11123 39.6349L10.8223 41.347L2.12705 46.622C2.12705 46.622 2.78607 52.651 0 58.504L9.45723 49.044C9.44421 48.8207 9.47855 48.5972 9.558 48.3882C9.63745 48.1791 9.76022 47.9892 9.91824 47.831C10.217 47.5326 10.6219 47.3649 11.0441 47.3647C11.4663 47.3645 11.8713 47.5319 12.1703 47.83C12.7903 48.454 12.7903 49.459 12.1703 50.083C12.0105 50.2397 11.8199 50.3615 11.6106 50.4408C11.4013 50.5202 11.1778 50.5553 10.9543 50.544L1.49704 60C7.34818 57.214 13.3763 57.873 13.3763 57.873L18.6515 49.175L20.3645 50.889L29.5197 41.73C29.5197 41.73 34.2538 39.998 42.8801 31.3699C51.5073 22.7469 53.2373 18.0109 53.2373 18.0109L57.6704 13.5789C59.162 12.0869 60 10.0636 60 7.95388C60 5.84418 59.162 3.82085 57.6704 2.32887ZM27.1817 42.392L17.6064 32.8169L19.1085 31.3169L28.6827 40.892L27.1817 42.392ZM52.4003 17.1719L42.8261 7.59488L44.3251 6.09688L53.9003 15.6719L52.4003 17.1719Z" fill="#52006A" fill-opacity="0.5"/>
</svg>
