<svg width="60" height="60" viewBox="0 0 60 60" fill="none" xmlns="http://www.w3.org/2000/svg">
<path fill-rule="evenodd" clip-rule="evenodd" d="M20.0001 30H12.4401C11.7064 31.2709 10.5737 32.2643 9.21786 32.8259C7.86202 33.3875 6.35874 33.486 4.94119 33.1062C3.52364 32.7263 2.27103 31.8894 1.37764 30.7251C0.484248 29.5608 0 28.1342 0 26.6667C0 25.1991 0.484248 23.7726 1.37764 22.6083C2.27103 21.444 3.52364 20.607 4.94119 20.2272C6.35874 19.8473 7.86202 19.9459 9.21786 20.5075C10.5737 21.0691 11.7064 22.0624 12.4401 23.3333H20.0001V6.66667C20.0001 4.89856 20.7025 3.20286 21.9527 1.95262C23.203 0.702379 24.8987 0 26.6668 0H53.3334C55.1015 0 56.7971 0.702379 58.0474 1.95262C59.2976 3.20286 60 4.89856 60 6.66667V53.3333C60 55.1014 59.2976 56.7971 58.0474 58.0474C56.7971 59.2976 55.1015 60 53.3334 60H26.6668C24.8987 60 23.203 59.2976 21.9527 58.0474C20.7025 56.7971 20.0001 55.1014 20.0001 53.3333V30ZM26.6668 30V53.3333H53.3334V6.66667H26.6668V23.3333H34.2267C34.9605 22.0624 36.0932 21.0691 37.449 20.5075C38.8049 19.9459 40.3081 19.8473 41.7257 20.2272C43.1432 20.607 44.3958 21.444 45.2892 22.6083C46.1826 23.7726 46.6669 25.1991 46.6669 26.6667C46.6669 28.1342 46.1826 29.5608 45.2892 30.7251C44.3958 31.8894 43.1432 32.7263 41.7257 33.1062C40.3081 33.486 38.8049 33.3875 37.449 32.8259C36.0932 32.2643 34.9605 31.2709 34.2267 30H26.6668Z" fill="#52006A" fill-opacity="0.5"/>
</svg>
